<!DOCTYPE svg PUBLIC "-//W3C//DTD SVG 1.1//EN" "http://www.w3.org/Graphics/SVG/1.1/DTD/svg11.dtd">
<!-- Uploaded to: SVG Repo, www.svgrepo.com, Transformed by: SVG Repo Mixer Tools -->
<svg fill="#ffffff" height="800px" width="800px" version="1.1" id="Layer_1" xmlns="http://www.w3.org/2000/svg" xmlns:xlink="http://www.w3.org/1999/xlink" viewBox="0 0 512 512" xml:space="preserve" stroke="#ffffff">
<g id="SVGRepo_bgCarrier" stroke-width="0"/>
<g id="SVGRepo_tracerCarrier" stroke-linecap="round" stroke-linejoin="round"/>
<g id="SVGRepo_iconCarrier"> <g> <g> <g> <path d="M437.019,74.982C388.667,26.628,324.379,0,256,0S123.334,26.628,74.982,74.982C26.628,123.333,0,187.621,0,256 c0,54.144,16.71,105.713,47.666,148.847c0.36,0.503,0.724,1.003,1.089,1.504c0.575,0.788,1.144,1.579,1.728,2.362 c12.273,16.512,26.512,31.496,42.462,44.659c1.063,0.881,2.135,1.746,3.21,2.609c0.066,0.053,0.13,0.105,0.196,0.157 C141.544,492.332,197.256,512,256,512c45.527,0,90.237-12.104,129.297-35.005c37.904-22.223,69.663-54.018,91.843-91.947 c2.254-3.855,0.956-8.805-2.897-11.06c-3.854-2.254-8.805-0.956-11.06,2.897C420.279,450.254,340.892,495.832,256,495.832 c-43.113,0-83.6-11.442-118.6-31.438c14.599-14.874,22.783-34.718,22.783-55.958c0-44.164-35.928-80.092-80.092-80.092 c-17.215,0-33.637,5.422-47.285,15.448C22.07,316.59,16.168,286.971,16.168,256C16.168,123.756,123.756,16.168,256,16.168 S495.832,123.756,495.832,256c0,34.419-7.132,67.638-21.199,98.734c-1.841,4.068-0.034,8.857,4.034,10.697 c4.069,1.841,8.857,0.033,10.697-4.033C504.385,328.194,512,292.734,512,256C512,187.621,485.372,123.333,437.019,74.982z M80.093,344.512c35.247,0,63.924,28.676,63.924,63.923c0,18.178-7.518,35.076-20.804,47.178 c-35.889-23.953-64.984-57.311-83.732-96.531C50.903,349.65,65.122,344.512,80.093,344.512z"/> <path d="M264.084,125.019c0-25.045-20.374-45.42-45.419-45.42s-45.419,20.375-45.419,45.42c0,25.044,20.374,45.419,45.419,45.419 S264.084,150.062,264.084,125.019z M189.415,125.019c0-16.13,13.122-29.252,29.251-29.252s29.25,13.122,29.25,29.252 c0,16.129-13.122,29.251-29.251,29.251S189.415,141.147,189.415,125.019z"/> <path d="M380.924,148.637c0-17.482-14.221-31.704-31.702-31.704c-17.482,0-31.704,14.222-31.704,31.704 c0,17.481,14.222,31.704,31.704,31.704C366.702,180.34,380.924,166.119,380.924,148.637z M333.685,148.637 c0-8.566,6.97-15.536,15.536-15.536c8.565,0,15.534,6.97,15.534,15.536s-6.969,15.536-15.534,15.536 C340.655,164.172,333.685,157.203,333.685,148.637z"/> <path d="M281.035,351.076c0,28.079,22.844,50.924,50.923,50.924c28.08,0,50.925-22.844,50.925-50.924 c0-28.08-22.845-50.924-50.925-50.924C303.879,300.152,281.035,322.995,281.035,351.076z M331.958,316.32 c19.165,0,34.757,15.592,34.757,34.756s-15.592,34.756-34.757,34.756c-19.164,0-34.755-15.591-34.755-34.756 S312.793,316.32,331.958,316.32z"/> <path d="M135.105,270.096c0,17.259,14.041,31.301,31.299,31.301c17.259,0,31.301-14.042,31.301-31.301 c0-17.259-14.042-31.3-31.301-31.3C149.146,238.796,135.105,252.836,135.105,270.096z M181.537,270.096 c0,8.344-6.789,15.133-15.133,15.133c-8.343,0-15.13-6.788-15.13-15.133c0-8.344,6.787-15.131,15.13-15.131 C174.748,254.964,181.537,261.752,181.537,270.096z"/> </g> </g> </g> </g>
</svg>